<svg xmlns="http://www.w3.org/2000/svg" data-name="Layer 1" viewBox="0 0 128 160" x="0px" y="0px"><title>Miscellaneous 69 expandlines</title><path d="M46.91605,26.77637c.0586-.0293,5.88533-2.96582,11.48743-1.21875.04493.01367.08985.02637.13576.03711.85946.20313,8.49886,1.92969,12.41623.27734.05274-.02051,5.43509-1.9707,9.999.832a2,2,0,1,0,2.094-3.4082c-6.26525-3.85059-13.21709-1.27637-13.5765-1.13867-2.08711.88477-7.17842.2041-9.9492-.44043C52.34138,19.51465,45.37,23.07227,45.07505,23.22559a1.99984,1.99984,0,0,0,1.841,3.55078Z"/><path d="M63.99972,78c5.05908,0,9.35148-3.41886,9.98533-7.95277a1.71329,1.71329,0,0,0-.48344-1.43111A2.09439,2.09439,0,0,0,72.00049,68H55.999a2.09439,2.09439,0,0,0-1.50112.61612,1.71329,1.71329,0,0,0-.48344,1.43111C54.64824,74.58114,58.94064,78,63.99972,78Zm5.24953-6.36364a6.41585,6.41585,0,0,1-10.49905,0Z"/><path d="M88.755,85.93848c-5.61083-4.83154-13.94165-6.12128-24.75537-3.8421-10.81549-2.27917-19.14539-.99042-24.75524,3.8421-7.89724,6.80078-7.25558,17.96-7.2253,18.43164a2.001,2.001,0,0,0,1.63883,1.83594,46.15209,46.15209,0,0,0,8.23321.7959c6.54164,0,11.91032-1.72266,16.02009-5.15332a21.65085,21.65085,0,0,0,6.08847-8.4574,21.65085,21.65085,0,0,0,6.08847,8.4574c4.10977,3.43066,9.47747,5.15332,16.02009,5.15332a46.24266,46.24266,0,0,0,8.23321-.7959,2.001,2.001,0,0,0,1.63883-1.83594C96.0106,103.89844,96.65227,92.73926,88.755,85.93848ZM55.34752,98.77832c-4.478,3.7373-10.97957,5.001-19.329,3.76367.13185-2.94922.99912-9.40723,5.8365-13.57227,4.40667-3.79492,11.13681-4.87793,20.02341-3.22266C61.53855,88.61523,60.24741,94.68848,55.34752,98.77832Zm17.33272.02344c-4.894-4.06543-6.20372-10.17578-6.55336-13.05566,8.869-1.65039,15.58939-.57422,19.99508,3.2041,4.82859,4.14063,5.71246,10.63086,5.8531,13.59277C83.64125,103.77637,77.15626,102.52051,72.68024,98.80176Z"/><path d="M126.94234,56.61127a26.92886,26.92886,0,0,0,1.02738-9.21771c-.01758-.84082-.56255-20.72266-13.3548-32.35547-6.62954-6.02832-15.29737-8.69434-25.76224-7.9043a1.99376,1.99376,0,0,0-.44023.08673,44.88028,44.88028,0,0,0-48.82549,0,1.99376,1.99376,0,0,0-.44023-.08673c-10.47171-.78711-19.13367,1.876-25.76224,7.9043C.59227,26.6709.0473,46.55273.03167,47.35547a27.06691,27.06691,0,0,0,1.02622,9.253c-.38022,1.41608-2.93064,11.72614,1.6,17.53314C4.65711,76.7041,7.632,78.001,11.50738,78.001c.18068,0,.36429-.00293.54888-.00879a1.96608,1.96608,0,0,0,.2242-.0296C17.57284,106.5575,38.74473,128,63.99972,128S110.4266,106.5575,115.719,77.96259a1.96609,1.96609,0,0,0,.2242.0296c.18556.00586.3682.00879.54888.00879,3.87537,0,6.85027-1.29687,8.84948-3.85937C129.869,68.33862,127.32532,58.03864,126.94234,56.61127ZM111.90666,17.98242c11.51868,10.457,12.05877,29.30371,12.06463,29.5293.21877,5.58887-.86434,9.665-3.13214,11.78809a6.246,6.246,0,0,1-3.89771,1.68549c-.80141-20.75586-9.826-38.95813-23.224-49.95221C100.99326,11.29462,107.10047,13.61755,111.90666,17.98242ZM4.0301,47.47363c.00293-.18848.51274-18.98926,12.04608-29.47656,4.80979-4.37323,10.92262-6.7041,18.207-6.965C20.88456,22.02606,11.8594,40.22894,11.058,60.98553A6.24754,6.24754,0,0,1,7.16028,59.2998C4.89249,57.17676,3.80938,53.10059,4.0301,47.47363ZM5.81543,71.68652C3.933,69.27808,3.80669,65.21863,4.154,61.91766c.12172.12268.22854.26282.35562.37921a10.3076,10.3076,0,0,0,6.50563,2.68622,77.20733,77.20733,0,0,0,.62982,9.01056C8.97375,74.03558,7.05261,73.26746,5.81543,71.68652ZM63.99972,124C36.97857,124,14.995,97.084,14.995,64S36.97857,4,63.99972,4s49.0047,26.916,49.0047,60S91.02087,124,63.99972,124Zm58.18722-52.31836c-1.23626,1.58569-3.15832,2.34772-5.83247,2.31146a77.21134,77.21134,0,0,0,.6297-9.01,10.30555,10.30555,0,0,0,6.50563-2.68622c.12892-.1181.23745-.26019.36087-.38477C124.20008,65.20715,124.07464,69.26239,122.18694,71.68164Z"/><path d="M71.60787,39A4.572,4.572,0,0,0,68.004,40.749a4.63732,4.63732,0,0,0-.877,3.96777L67.66792,47h-7.3364l.54095-2.2832a4.63732,4.63732,0,0,0-.877-3.96777A4.572,4.572,0,0,0,56.39157,39H47.36171L31.69877,33.127A2.00035,2.00035,0,1,0,30.29434,36.873L35.96676,39H29.60287A4.62839,4.62839,0,0,0,24.996,43.63965v16.7207A4.62839,4.62839,0,0,0,29.60287,65H52.43025a4.59862,4.59862,0,0,0,4.4809-3.5625L59.38392,51h9.2316l2.47277,10.4375A4.59862,4.59862,0,0,0,75.56919,65H98.39658a4.62839,4.62839,0,0,0,4.60689-4.63965V43.63965A4.62839,4.62839,0,0,0,98.39658,39H92.03268l5.67242-2.127A2.00035,2.00035,0,1,0,96.30067,33.127L80.63773,39ZM40.99751,59a2.00019,2.00019,0,1,1,2.00019,2A2.0027,2.0027,0,0,1,40.99751,59Zm15.982-15.20508L53.0182,60.51563A.61235.61235,0,0,1,52.43025,61h-3.782a6.00061,6.00061,0,1,0-11.301,0H29.60287a.62482.62482,0,0,1-.6065-.63965V43.63965A.62482.62482,0,0,1,29.60287,43H46.98729l.0108.001L47.0045,43h9.38707a.58137.58137,0,0,1,.46587.22949A.65364.65364,0,0,1,56.97952,43.79492ZM83.00154,59a2.00019,2.00019,0,1,1,2.00019,2A2.0027,2.0027,0,0,1,83.00154,59ZM99.00308,43.63965v16.7207A.62482.62482,0,0,1,98.39658,61H90.65224a6.00061,6.00061,0,1,0-11.301,0h-3.782a.61235.61235,0,0,1-.58795-.48437l-3.96132-16.7207a.65364.65364,0,0,1,.12208-.56543A.58137.58137,0,0,1,71.60787,43h9.38707l.00641.001.0108-.001H98.39658A.62482.62482,0,0,1,99.00308,43.63965Z"/><path d="M67,105H60.99943a2,2,0,1,0,0,4H67a2,2,0,1,0,0-4Z"/><text x="0" y="143" fill="#000000" font-size="5px" font-weight="bold" font-family="'Helvetica Neue', Helvetica, Arial-Unicode, Arial, Sans-serif">Created by priyanka</text><text x="0" y="148" fill="#000000" font-size="5px" font-weight="bold" font-family="'Helvetica Neue', Helvetica, Arial-Unicode, Arial, Sans-serif">from the Noun Project</text></svg>